<?xml version="1.0" standalone="no"?>
<!DOCTYPE svg PUBLIC "-//W3C//DTD SVG 20010904//EN"
 "http://www.w3.org/TR/2001/REC-SVG-20010904/DTD/svg10.dtd">
<svg version="1.0" xmlns="http://www.w3.org/2000/svg"
 width="96.000000pt" height="96.000000pt" viewBox="0 0 96.000000 96.000000"
 preserveAspectRatio="xMidYMid meet">

<g transform="translate(0.000000,96.000000) scale(0.100000,-0.100000)"
fill="#000000" stroke="none">
<path d="M605 856 l-120 -22 -3 -157 -3 -157 181 0 180 0 0 155 c0 152 -1 156
-25 180 -29 30 -47 30 -210 1z"/>
<path d="M375 815 c-5 -2 -55 -11 -109 -21 -140 -24 -146 -31 -146 -169 l0
-105 140 0 140 0 0 150 c0 83 -3 150 -7 149 -5 0 -12 -2 -18 -4z"/>
<path d="M120 335 c0 -138 6 -145 146 -169 54 -10 107 -20 117 -22 16 -5 17 7
17 145 l0 151 -140 0 -140 0 0 -105z"/>
<path d="M482 283 l3 -157 130 -23 c164 -28 171 -28 200 2 24 24 25 28 25 180
l0 155 -180 0 -181 0 3 -157z"/>
</g>
</svg>
