<?xml version="1.0" standalone="no"?>
<!DOCTYPE svg PUBLIC "-//W3C//DTD SVG 20010904//EN"
 "http://www.w3.org/TR/2001/REC-SVG-20010904/DTD/svg10.dtd">
<svg version="1.0" xmlns="http://www.w3.org/2000/svg"
 width="98.000000pt" height="98.000000pt" viewBox="0 0 98.000000 98.000000"
 preserveAspectRatio="xMidYMid meet">

<g transform="translate(0.000000,98.000000) scale(0.100000,-0.100000)"
fill="#000000" stroke="none">
<path d="M26 929 l-26 -20 0 -320 c0 -306 1 -320 20 -339 18 -18 33 -20 195
-20 192 0 191 0 160 -59 -16 -32 -33 -41 -76 -41 -64 0 -92 -46 -51 -83 16
-15 48 -17 244 -17 205 0 226 2 241 18 37 41 11 82 -52 82 -43 0 -60 9 -76 41
-31 59 -32 59 160 59 162 0 177 2 195 20 19 19 20 33 20 339 l0 320 -26 20
c-26 21 -37 21 -464 21 -427 0 -438 0 -464 -21z m918 -35 c3 -9 6 -126 6 -261
0 -227 -1 -244 -17 -241 -17 3 -18 24 -21 246 l-2 242 -420 0 -420 0 -2 -242
c-3 -222 -4 -243 -20 -246 -17 -3 -18 14 -18 241 0 135 3 252 6 261 5 14 55
16 454 16 399 0 449 -2 454 -16z m-64 -274 l0 -230 -390 0 -390 0 0 230 0 230
390 0 390 0 0 -230z m70 -298 c0 -21 -5 -43 -12 -50 -17 -17 -879 -17 -896 0
-7 7 -12 29 -12 50 l0 38 460 0 460 0 0 -38z m-390 -114 c0 -13 7 -35 14 -50
l15 -28 -99 0 -99 0 15 28 c7 15 14 37 14 50 0 21 4 22 70 22 66 0 70 -1 70
-22z m158 -125 c3 -10 -47 -13 -227 -13 -211 0 -244 3 -224 24 4 3 106 5 227
4 165 -2 220 -6 224 -15z"/>
<path d="M280 751 c0 -26 -4 -30 -32 -33 -25 -2 -34 -8 -36 -25 -3 -18 -10
-23 -33 -23 -28 0 -29 -1 -29 -50 0 -49 1 -50 29 -50 23 0 30 -5 33 -22 2 -18
11 -24 36 -26 19 -2 32 -9 32 -17 0 -8 -13 -15 -32 -17 -18 -2 -32 -7 -31 -13
2 -6 50 -11 113 -13 93 -2 110 0 110 13 0 10 -10 15 -30 15 -28 0 -30 2 -30
40 l0 40 110 0 110 0 0 -40 c0 -38 -2 -40 -30 -40 -20 0 -30 -5 -30 -15 0 -13
17 -15 110 -13 63 2 111 7 113 13 1 6 -13 11 -30 13 -20 2 -33 9 -33 17 0 8
13 15 33 17 24 2 33 8 35 26 3 17 10 22 33 22 28 0 29 1 29 50 0 49 -1 50 -29
50 -23 0 -30 5 -33 23 -2 17 -11 23 -35 25 -29 3 -33 7 -33 33 0 30 -1 30 -47
27 l-48 -3 -3 -52 -3 -53 -109 0 -109 0 -3 53 -3 52 -47 3 c-47 3 -48 3 -48
-27z m60 -131 c0 -109 -2 -130 -15 -130 -13 0 -15 21 -15 130 0 109 2 130 15
130 13 0 15 -21 15 -130z m330 0 c0 -109 -2 -130 -15 -130 -13 0 -15 21 -15
130 0 109 2 130 15 130 13 0 15 -21 15 -130z m-392 2 c2 -51 0 -62 -13 -62
-12 0 -15 13 -15 66 0 48 3 65 13 62 7 -3 13 -28 15 -66z m452 3 c0 -51 -3
-65 -15 -65 -12 0 -15 13 -15 58 0 32 3 62 7 65 17 17 23 2 23 -58z m-520 -5
c0 -11 -7 -20 -15 -20 -8 0 -15 9 -15 20 0 11 7 20 15 20 8 0 15 -9 15 -20z
m390 0 c0 -19 -7 -20 -110 -20 -103 0 -110 1 -110 20 0 19 7 20 110 20 103 0
110 -1 110 -20z m200 0 c0 -11 -7 -20 -15 -20 -8 0 -15 9 -15 20 0 11 7 20 15
20 8 0 15 -9 15 -20z"/>
<path d="M432 313 c3 -15 13 -18 58 -18 42 0 55 3 55 15 0 11 -14 16 -58 18
-52 3 -58 1 -55 -15z"/>
</g>
</svg>
