<?xml version="1.0" standalone="no"?>
<!DOCTYPE svg PUBLIC "-//W3C//DTD SVG 20010904//EN"
 "http://www.w3.org/TR/2001/REC-SVG-20010904/DTD/svg10.dtd">
<svg version="1.0" xmlns="http://www.w3.org/2000/svg"
 width="64.000000pt" height="64.000000pt" viewBox="0 0 64.000000 64.000000"
 preserveAspectRatio="xMidYMid meet">

<g transform="translate(0.000000,64.000000) scale(0.100000,-0.100000)"
fill="#000000" stroke="none">
<path d="M83 533 c-16 -3 -23 -11 -23 -28 0 -14 -7 -25 -20 -28 -27 -7 -27
-47 0 -54 11 -3 20 -13 20 -23 0 -12 10 -20 31 -24 57 -11 69 -8 69 19 0 14 5
25 10 25 15 0 12 -67 -2 -73 -10 -4 -9 -8 2 -16 13 -10 13 -12 0 -22 -11 -8
-12 -12 -2 -16 17 -7 15 -60 -3 -67 -19 -7 -19 -45 0 -52 20 -8 20 -64 0 -64
-8 0 -15 -4 -15 -10 0 -5 18 -10 40 -10 22 0 40 5 40 10 0 6 -7 10 -15 10 -10
0 -15 10 -15 30 0 29 2 30 45 30 43 0 59 -12 33 -24 -10 -5 -10 -7 0 -12 6 -3
12 -14 12 -25 0 -14 7 -19 30 -19 23 0 30 5 30 19 0 11 6 22 13 25 10 5 10 7
0 12 -27 12 -11 24 32 24 43 0 45 -1 45 -30 0 -20 -5 -30 -15 -30 -8 0 -15 -4
-15 -10 0 -5 18 -10 40 -10 22 0 40 5 40 10 0 6 -7 10 -15 10 -10 0 -15 10
-15 29 0 16 6 31 15 35 19 7 19 45 0 52 -18 7 -20 60 -2 67 9 4 8 8 -3 16 -13
10 -13 12 0 22 11 8 12 12 3 16 -15 6 -18 73 -3 73 6 0 10 -11 10 -25 0 -27
12 -30 69 -19 21 4 31 12 31 24 0 10 9 20 20 23 27 7 27 47 0 54 -13 3 -20 14
-20 28 0 17 -7 24 -31 29 -60 12 -69 8 -69 -24 0 -16 -4 -30 -10 -30 -5 0 -10
14 -10 30 0 17 -4 30 -10 30 -5 0 -10 -13 -10 -30 l0 -30 -120 0 -120 0 0 30
c0 17 -4 30 -10 30 -5 0 -10 -13 -10 -30 0 -16 -4 -30 -10 -30 -5 0 -10 14
-10 30 0 26 -3 30 -27 29 -16 -1 -38 -4 -50 -6z m57 -78 c0 -37 -4 -65 -10
-65 -6 0 -10 28 -10 65 0 37 4 65 10 65 6 0 10 -28 10 -65z m380 0 c0 -37 -4
-65 -10 -65 -6 0 -10 28 -10 65 0 37 4 65 10 65 6 0 10 -28 10 -65z m-420 0
c0 -30 -4 -55 -10 -55 -5 0 -10 25 -10 55 0 30 5 55 10 55 6 0 10 -25 10 -55z
m460 0 c0 -30 -4 -55 -10 -55 -5 0 -10 25 -10 55 0 30 5 55 10 55 6 0 10 -25
10 -55z m-500 -5 c0 -5 -4 -10 -10 -10 -5 0 -10 5 -10 10 0 6 5 10 10 10 6 0
10 -4 10 -10z m120 0 c0 -5 -4 -10 -10 -10 -5 0 -10 5 -10 10 0 6 5 10 10 10
6 0 10 -4 10 -10z m260 0 c0 -6 -47 -10 -120 -10 -73 0 -120 4 -120 10 0 6 47
10 120 10 73 0 120 -4 120 -10z m40 0 c0 -5 -4 -10 -10 -10 -5 0 -10 5 -10 10
0 6 5 10 10 10 6 0 10 -4 10 -10z m120 0 c0 -5 -4 -10 -10 -10 -5 0 -10 5 -10
10 0 6 5 10 10 10 6 0 10 -4 10 -10z m-160 -64 c0 -19 -6 -37 -12 -39 -10 -4
-9 -8 2 -16 13 -10 13 -12 0 -22 -11 -8 -12 -12 -2 -16 6 -2 12 -18 12 -34 0
-24 -4 -29 -23 -29 -18 0 -27 9 -38 37 -26 68 -34 78 -59 78 -25 0 -33 -10
-59 -78 -11 -28 -20 -37 -38 -37 -19 0 -23 5 -23 29 0 16 6 32 13 34 9 4 8 8
-3 16 -13 10 -13 12 0 22 11 8 12 12 3 16 -7 2 -13 20 -13 39 l0 34 120 0 120
0 0 -34z m-100 -75 c16 -32 12 -41 -20 -41 -16 0 -30 5 -30 11 0 16 20 49 30
49 5 0 14 -9 20 -19z m30 -71 c0 -5 -22 -10 -50 -10 -27 0 -50 5 -50 10 0 6
23 10 50 10 28 0 50 -4 50 -10z m100 -40 c0 -6 -57 -10 -150 -10 -93 0 -150 4
-150 10 0 6 57 10 150 10 93 0 150 -4 150 -10z m-140 -40 c0 -5 -4 -10 -10
-10 -5 0 -10 5 -10 10 0 6 5 10 10 10 6 0 10 -4 10 -10z m0 -40 c0 -5 -4 -10
-10 -10 -5 0 -10 5 -10 10 0 6 5 10 10 10 6 0 10 -4 10 -10z"/>
</g>
</svg>
