<?xml version="1.0" encoding="UTF-8"?>
<svg width="700pt" height="700pt" version="1.1" viewBox="0 0 700 700" xmlns="http://www.w3.org/2000/svg" xmlns:xlink="http://www.w3.org/1999/xlink">
 <defs>
  <symbol id="l" overflow="visible">
   <path d="m37.516-2.25c-1.9297 1.0117-3.9453 1.7734-6.0469 2.2812-2.0938 0.50781-4.2812 0.76562-6.5625 0.76562-6.793 0-12.18-1.8984-16.156-5.7031-3.9688-3.8008-5.9531-8.957-5.9531-15.469 0-6.5195 1.9844-11.68 5.9531-15.484 3.9766-3.8008 9.3633-5.7031 16.156-5.7031 2.2812 0 4.4688 0.25781 6.5625 0.76562 2.1016 0.51172 4.1172 1.2656 6.0469 2.2656v8.4531c-1.9492-1.332-3.8711-2.3047-5.7656-2.9219-1.8984-0.625-3.8906-0.9375-5.9844-0.9375-3.7617 0-6.7188 1.2031-8.875 3.6094-2.1484 2.4062-3.2188 5.7266-3.2188 9.9531 0 4.2109 1.0703 7.5156 3.2188 9.9219 2.1562 2.4062 5.1133 3.6094 8.875 3.6094 2.0938 0 4.0859-0.30469 5.9844-0.92188 1.8945-0.625 3.8164-1.5977 5.7656-2.9219z"/>
  </symbol>
  <symbol id="h" overflow="visible">
   <path d="m27.453-22.281c-0.85547-0.40625-1.7109-0.70312-2.5625-0.89062-0.84375-0.19531-1.6953-0.29688-2.5469-0.29688-2.5234 0-4.4609 0.80859-5.8125 2.4219-1.3555 1.6172-2.0312 3.9297-2.0312 6.9375v14.109h-9.7969v-30.625h9.7969v5.0312c1.25-2.0078 2.6914-3.4727 4.3281-4.3906 1.6328-0.91406 3.5859-1.375 5.8594-1.375 0.33203 0 0.6875 0.015625 1.0625 0.046875 0.38281 0.023438 0.94141 0.078125 1.6719 0.17188z"/>
  </symbol>
  <symbol id="a" overflow="visible">
   <path d="m35.281-15.391v2.7812h-22.891c0.23828 2.3047 1.0664 4.0273 2.4844 5.1719 1.4258 1.1484 3.4141 1.7188 5.9688 1.7188 2.0508 0 4.1562-0.30078 6.3125-0.90625 2.1641-0.61328 4.3906-1.5391 6.6719-2.7812v7.5469c-2.3125 0.875-4.6328 1.5391-6.9531 1.9844-2.3125 0.44531-4.625 0.67188-6.9375 0.67188-5.543 0-9.8516-1.4062-12.922-4.2188-3.0742-2.8203-4.6094-6.7734-4.6094-11.859 0-5 1.5039-8.9258 4.5156-11.781 3.0195-2.8633 7.1758-4.2969 12.469-4.2969 4.8125 0 8.6602 1.4492 11.547 4.3438 2.8945 2.8984 4.3438 6.7734 4.3438 11.625zm-10.062-3.2656c0-1.8516-0.54688-3.3477-1.6406-4.4844-1.0859-1.1445-2.5-1.7188-4.25-1.7188-1.8984 0-3.4375 0.53906-4.625 1.6094-1.1797 1.0625-1.9141 2.5938-2.2031 4.5938z"/>
  </symbol>
  <symbol id="g" overflow="visible">
   <path d="m18.438-13.781c-2.043 0-3.5781 0.35156-4.6094 1.0469-1.0312 0.6875-1.5469 1.7031-1.5469 3.0469 0 1.2422 0.41016 2.2148 1.2344 2.9219 0.83203 0.69922 1.9883 1.0469 3.4688 1.0469 1.8438 0 3.3906-0.66016 4.6406-1.9844 1.2578-1.3203 1.8906-2.9727 1.8906-4.9531v-1.125zm14.953-3.6875v17.469h-9.875v-4.5469c-1.3125 1.8672-2.793 3.2266-4.4375 4.0781-1.6367 0.84375-3.6328 1.2656-5.9844 1.2656-3.168 0-5.7422-0.92578-7.7188-2.7812-1.9805-1.8516-2.9688-4.2539-2.9688-7.2031 0-3.5938 1.2344-6.2266 3.7031-7.9062 2.4688-1.6758 6.3477-2.5156 11.641-2.5156h5.7656v-0.76562c0-1.5508-0.60938-2.6875-1.8281-3.4062s-3.125-1.0781-5.7188-1.0781c-2.0938 0-4.0469 0.21484-5.8594 0.64062-1.8047 0.41797-3.4766 1.043-5.0156 1.875v-7.4688c2.0938-0.50781 4.1953-0.89453 6.3125-1.1562 2.1133-0.25781 4.2266-0.39062 6.3438-0.39062 5.5195 0 9.5039 1.0898 11.953 3.2656 2.457 2.1797 3.6875 5.7188 3.6875 10.625z"/>
  </symbol>
  <symbol id="f" overflow="visible">
   <path d="m15.391-39.328v8.7031h10.094v7h-10.094v12.984c0 1.4297 0.28125 2.3906 0.84375 2.8906 0.57031 0.5 1.6953 0.75 3.375 0.75h5.0312v7h-8.3906c-3.8672 0-6.6055-0.80469-8.2188-2.4219-1.6172-1.6133-2.4219-4.3516-2.4219-8.2188v-12.984h-4.875v-7h4.875v-8.7031z"/>
  </symbol>
  <symbol id="e" overflow="visible">
   <path d="m25.547-26.141v-16.406h9.8438v42.547h-9.8438v-4.4375c-1.3555 1.8125-2.8438 3.1406-4.4688 3.9844-1.6172 0.83203-3.4922 1.25-5.625 1.25-3.7734 0-6.8711-1.5-9.2969-4.5-2.4297-3-3.6406-6.8594-3.6406-11.578 0-4.7266 1.2109-8.5859 3.6406-11.578 2.4258-3 5.5234-4.5 9.2969-4.5 2.1133 0 3.9844 0.42188 5.6094 1.2656 1.6328 0.84375 3.1289 2.1641 4.4844 3.9531zm-6.4531 19.828c2.0938 0 3.6914-0.76562 4.7969-2.2969 1.1016-1.5312 1.6562-3.7539 1.6562-6.6719 0-2.9141-0.55469-5.1406-1.6562-6.6719-1.1055-1.5312-2.7031-2.2969-4.7969-2.2969-2.0859 0-3.6797 0.76562-4.7812 2.2969-1.1055 1.5312-1.6562 3.7578-1.6562 6.6719 0 2.918 0.55078 5.1406 1.6562 6.6719 1.1016 1.5312 2.6953 2.2969 4.7812 2.2969z"/>
  </symbol>
  <symbol id="d" overflow="visible">
   <path d="m21-6.3125c2.0938 0 3.6914-0.76562 4.7969-2.2969 1.1016-1.5312 1.6562-3.7539 1.6562-6.6719 0-2.9141-0.55469-5.1406-1.6562-6.6719-1.1055-1.5312-2.7031-2.2969-4.7969-2.2969s-3.7031 0.77344-4.8281 2.3125c-1.1172 1.5312-1.6719 3.75-1.6719 6.6562 0 2.8984 0.55469 5.1172 1.6719 6.6562 1.125 1.543 2.7344 2.3125 4.8281 2.3125zm-6.5-19.828c1.3438-1.7891 2.832-3.1094 4.4688-3.9531 1.6445-0.84375 3.5352-1.2656 5.6719-1.2656 3.7695 0 6.8672 1.5 9.2969 4.5 2.4258 2.9922 3.6406 6.8516 3.6406 11.578 0 4.7188-1.2148 8.5781-3.6406 11.578-2.4297 3-5.5273 4.5-9.2969 4.5-2.1367 0-4.0273-0.42188-5.6719-1.2656-1.6367-0.85156-3.125-2.1758-4.4688-3.9688v4.4375h-9.7969v-42.547h9.7969z"/>
  </symbol>
  <symbol id="c" overflow="visible">
   <path d="m0.6875-30.625h9.7812l8.2344 20.781 7-20.781h9.7969l-12.891 33.531c-1.293 3.4062-2.8047 5.7852-4.5312 7.1406-1.7188 1.3633-3.9922 2.0469-6.8125 2.0469h-5.6562v-6.4375h3.0625c1.6562 0 2.8594-0.26562 3.6094-0.79688 0.75781-0.52344 1.3516-1.4648 1.7812-2.8281l0.26562-0.85938z"/>
  </symbol>
  <symbol id="b" overflow="visible">
   <path d="m29.922-7.4375h-16.469l-2.5938 7.4375h-10.578l15.109-40.828h12.562l15.109 40.828h-10.578zm-13.844-7.5781h11.188l-5.5781-16.234z"/>
  </symbol>
  <symbol id="k" overflow="visible">
   <path d="m0.28125-40.828h37.625v7.9531h-13.547v32.875h-10.516v-32.875h-13.562z"/>
  </symbol>
  <symbol id="j" overflow="visible">
   <path d="m23.797-33.938c-3.2109 0-5.6992 1.1875-7.4688 3.5625-1.7734 2.3672-2.6562 5.6992-2.6562 10 0 4.2812 0.88281 7.6094 2.6562 9.9844 1.7695 2.3672 4.2578 3.5469 7.4688 3.5469 3.2188 0 5.7109-1.1797 7.4844-3.5469 1.7695-2.375 2.6562-5.7031 2.6562-9.9844 0-4.3008-0.88672-7.6328-2.6562-10-1.7734-2.375-4.2656-3.5625-7.4844-3.5625zm0-7.625c6.5625 0 11.703 1.8828 15.422 5.6406 3.7188 3.75 5.5781 8.9336 5.5781 15.547 0 6.6055-1.8594 11.789-5.5781 15.547-3.7188 3.75-8.8594 5.625-15.422 5.625-6.5547 0-11.695-1.875-15.422-5.625-3.7188-3.7578-5.5781-8.9414-5.5781-15.547 0-6.6133 1.8594-11.797 5.5781-15.547 3.7266-3.7578 8.8672-5.6406 15.422-5.6406z"/>
  </symbol>
  <symbol id="i" overflow="visible">
   <path d="m5.1406-40.828h13.406l9.2969 21.844 9.3438-21.844h13.375v40.828h-9.9531v-29.859l-9.4062 22.016h-6.6719l-9.4062-22.016v29.859h-9.9844z"/>
  </symbol>
 </defs>
 <g>
  <path d="m167.12 456.4h239.34c1.543 0 2.8008-1.2578 2.8008-2.8008v-182.93c0-1.5469-1.2578-2.8008-2.8008-2.8008h-239.34c-1.543 0-2.8008 1.2539-2.8008 2.8008v182.94c0 1.5391 1.2578 2.7969 2.8008 2.7969zm2.8008-182.93h233.75v177.34h-233.75zm279.84 199.83h70.086c1.543 0 2.8008-1.2578 2.8008-2.8008v-186.81c0-1.543-1.2578-2.8008-2.8008-2.8008h-70.086c-1.543 0-2.8008 1.2578-2.8008 2.8008v186.81c0 1.5391 1.2578 2.7969 2.8008 2.7969zm2.8008-186.81h64.488v181.21h-64.488zm21.863 70.777h-11.637c-1.543 0-2.8008 1.2578-2.8008 2.8008v34.059c0 1.543 1.2578 2.8008 2.8008 2.8008h11.637c1.543 0 2.8008-1.2578 2.8008-2.8008v-34.059c0-1.543-1.2578-2.8008-2.8008-2.8008zm-2.8008 34.059h-6.0391v-28.461h6.0391zm-171.31-55.102c0.21875 1.6836 0.625 3.3672 1.2031 5.0312 3.543 10.051 13.027 16.34 23.121 16.34 2.6914 0 5.4375-0.44922 8.1172-1.3984 12.73-4.4844 19.438-18.496 14.941-31.227-0.57812-1.6406-1.3242-3.2031-2.2109-4.6719l-0.15234-6.9141c-0.023437-0.57031-0.65625-14.188-11.32-20.277-4.7266-2.7031-10.73-3.1289-17.367-1.2812-1.5547 0.4375-10.215 3.5-11.746 4.1445-6.3203 2.6914-10.719 6.8047-12.711 11.891-4.4961 11.441 3.5664 22.445 3.9375 22.945zm-2.9219-26.316c1.8164-4.6172 6.2656-7.3164 9.6914-8.7734 1.2891-0.54688 9.7891-3.5547 11.078-3.9258 2.2305-0.625 4.3086-0.92969 6.2344-0.92969 2.5703 0 4.8672 0.55859 6.8359 1.6836 7.9414 4.5391 8.5 15.531 8.5 15.598l0.15234 6.8672c-0.16406 0.74219-0.011718 1.5195 0.40625 2.1445 0.875 1.3125 1.5977 2.7461 2.1328 4.2539 1.6719 4.7578 1.3984 9.875-0.77734 14.438-2.1875 4.5508-6.0039 7.9727-10.75 9.6562-9.8008 3.4453-20.629-1.7188-24.094-11.516-0.52344-1.4883-0.85156-2.9961-0.99609-4.4844-0.042969-0.39453-0.15234-0.76562-0.35156-1.1172l-0.097656-0.17578c-0.066407-0.10938-0.14062-0.23047-0.21875-0.33984l-4.5391-5.875c-0.066406-0.078125-6.543-8.9922-3.207-17.504zm6.3867 13.562c0.042968 0.054687 0.085937 0.12109 0.13281 0.17578 0.53516 0.66797 1.3789 1.0273 2.2188 1.0273 0.30469 0 0.625-0.042969 0.91797-0.14062 0.85156-0.28516 1.5078-0.96094 1.7812-1.8047 2.2539-3.4336 5.6016-6.0469 9.4844-7.4258 3.9492-1.3906 8.0938-1.4531 12.043-0.1875 0.26172 0.17578 0.55859 0.30469 0.875 0.38281 1.4219 0.38281 2.8125-0.40625 3.3047-1.7266l0.03125-0.085937c0.10938-0.31641 0.17578-0.64453 0.17578-0.97266l0.38281-2.9648c0.28516-2.7227-0.77734-8.3789-6.8477-10.312-2.9766-0.92969-6.7031-0.72266-11.047 0.61328-0.97266 0.29688-6.6836 2.3086-7.625 2.6797-4.2656 1.707-7.2969 3.8945-8.9922 6.4844-3.5234 5.293-0.79688 10.367 1.1797 12.359zm1.5117-11.188c1.0391-1.5742 3.3047-3.1172 6.3984-4.3516 0.875-0.35156 6.2578-2.2539 7.1758-2.5273 2.0352-0.625 3.8828-0.94141 5.4258-0.94141 0.875 0 1.6523 0.097657 2.2969 0.30469 3.0859 0.98438 3.0078 3.8516 2.9766 4.332v0.03125c-4.3516-0.89844-8.8906-0.58984-13.102 0.89844-4.2109 1.4766-7.9297 4.1016-10.75 7.5234-0.25-0.25-2.2617-2.4922-0.42188-5.2695zm274.78-124.68h-62.148v-21.547h10.969c1.543 0 2.8008-1.2539 2.8008-2.8008l0.003906-21.883c0-1.5469-1.2578-2.8008-2.8008-2.8008h-10.969l-0.003906-31.945c0-1.5469-1.2578-2.8008-2.8008-2.8008h-17.203v-7.0391c0-1.5469-1.2578-2.8008-2.8008-2.8008h-40.129c-1.543 0-2.8008 1.2539-2.8008 2.8008v40.129h-100.94l-16.344-16.344 12.078-12.078c0.52344-0.52344 0.82031-1.2344 0.82031-1.9805 0-0.74219-0.29688-1.4531-0.82031-1.9805l-13.148-13.137c-1.1055-1.0977-2.875-1.0781-3.9609 0l-1.2344 1.2461-4.5703-4.5703c-1.0508-1.0508-2.9102-1.0508-3.9609 0l-29.914 29.918c-1.0938 1.0938-1.0938 2.8672 0 3.9609l4.5625 4.5703-1.2344 1.2383c-1.0938 1.0938-1.0938 2.8672 0 3.9609l5.1992 5.1992h-50.906v-40.129c0-1.5469-1.2578-2.8008-2.8008-2.8008h-40.129c-1.543 0-2.8008 1.2539-2.8008 2.8008v7.0391h-17.203c-1.543 0-2.8008 1.2539-2.8008 2.8008v31.941h-10.973c-1.543 0-2.8008 1.2539-2.8008 2.8008v21.887c0 1.5469 1.2578 2.8008 2.8008 2.8008h10.969v21.547l-62.145-0.003906c-1.543 0-2.8008 1.2539-2.8008 2.8008v30.621c0 1.5469 1.2578 2.8008 2.8008 2.8008h19.141v259.64c0 1.543 1.2578 2.8008 2.8008 2.8008h416.26c1.543 0 2.8008-1.2578 2.8008-2.8008v-259.65h19.141c1.543 0 2.8008-1.2539 2.8008-2.8008v-30.621c0-1.543-1.2578-2.7969-2.8008-2.7969zm-53.977-43.434v16.285h-8.1719v-16.285zm-13.77-34.742v85.77h-14.406v-85.77zm-20.004-2.8008v98.41h-14.461v-105.45h14.461zm-34.531-7.0352h14.469v105.45h-14.469zm-5.6016 88.012h-52.207l9.8242-9.8281c1.0938-1.0938 1.0938-2.8672 0-3.9609l-4.5664-4.5703 1.2422-1.2422c0.10156-0.10156 0.066406-0.25 0.14844-0.35938h45.559zm-82.805 9.582c-0.003906 0.003907 0 0.007813-0.003906 0.007813l-1.2344 1.2344-9.1875-9.1836 32.406-32.398 9.1758 9.1758-21.316 21.32zm-16.363-9.9219c-0.089843 0.089844-0.066406 0.23828-0.14062 0.33984h-105.07v-19.961h109.79l7.5234 7.5234zm30.5 3.707 17.766-17.758 2.582 2.5859-25.953 25.961-2.5898-2.5898zm68.668-48.449v19.523h-47.711l-11.133-11.133c-1.0938-1.0938-2.8672-1.0938-3.9609 0l-11.137 11.133h-1.8789l-19.523-19.523zm-78.84 24.418-4.2656 4.2656-42.41-42.402 4.2695-4.2695zm-50.637-34.176 4.1562 4.1562h-8.3125zm9.1445-35.422 9.1875 9.1758-32.406 32.402-9.1758-9.1836 16.199-16.199 14.961-14.957c0.003906-0.003906 0-0.007812 0.003906-0.007812zm-33.141 25.219-2.582-2.5859 25.953-25.961 2.5898 2.5898-12.98 12.98zm5.6016 19.961 2.3398 2.3398c0.52344 0.52344 1.2344 0.82031 1.9805 0.82031 0.74219 0 1.4531-0.29688 1.9805-0.82031l2.3398-2.3398h19.516l19.527 19.523h-104.19v-19.523zm-62.105-42.93v105.45h-14.469v-105.45zm-34.531 0h14.461v105.45h-14.461zm-20.004 9.8359h14.406v85.773h-14.406zm-13.77 51.031v-16.289h8.1719v16.285zm356.17 320.21h-90.531l0.003906-207.2h90.531zm25.254 0h-19.652v-210c0-1.5469-1.2578-2.8008-2.8008-2.8008h-96.129c-1.543 0-2.8008 1.2539-2.8008 2.8008v210h-289.27v-256.85h410.66zm21.941-262.45h-454.54v-25.02h59.348v4.7969c0 1.5469 1.2578 2.8008 2.8008 2.8008h17.203v7.0391c0 1.5469 1.2578 2.8008 2.8008 2.8008h40.129c1.543 0 2.8008-1.2539 2.8008-2.8008v-14.633h107.19l11.168 11.16c0.54688 0.54688 1.2578 0.82031 1.9805 0.82031 0.72266 0 1.4336-0.27344 1.9805-0.82031l1.2383-1.2383 4.5703 4.5703c0.52344 0.52344 1.2344 0.82031 1.9805 0.82031 0.74219 0 1.4531-0.29688 1.9805-0.82031l14.488-14.492h57.809v14.633c0 1.5469 1.2578 2.8008 2.8008 2.8008h40.129c1.543 0 2.8008-1.2539 2.8008-2.8008v-7.0391h17.203c1.543 0 2.8008-1.2539 2.8008-2.8008v-4.7969h59.348zm-195.48 135.58c-1.082-2.0469-2.8867-3.5547-5.0977-4.2422-2.2422-0.6875-4.5703-0.46875-6.6289 0.625l-6.4961 3.4219c-2.0469 1.082-3.5547 2.8984-4.2422 5.1172-0.60937 1.9844-0.37891 4.0586 0.4375 5.9414l-16.152 8.5391c-1.1016-1.7422-2.6875-3.0859-4.6836-3.7031-2.2305-0.66797-4.5703-0.44922-6.6172 0.625l-6.4961 3.4336c-4.2227 2.2305-5.8398 7.4922-3.6094 11.727l5.7422 10.852c1.543 2.9414 4.5625 4.625 7.6797 4.625 1.3672 0 2.7578-0.32812 4.0469-1.0078l6.4961-3.4336c4.0156-2.1211 5.5664-6.9648 3.8008-11.078l16.195-8.5547c1.625 2.5508 4.3203 4.1172 7.2148 4.1172 1.3555 0 2.7461-0.31641 4.0352-1.0078l6.4961-3.4336c2.0469-1.0703 3.543-2.8867 4.2344-5.0977 0.6875-2.2188 0.46094-4.5703-0.625-6.6289zm-35.449 24.285 15.914-8.4141 1.1289 2.1406-15.914 8.4062zm-2.8008 13.285-6.4844 3.4219c-1.4766 0.79688-3.3789 0.24219-4.168-1.2812l-5.7305-10.852c-0.79688-1.5-0.21875-3.3672 1.2812-4.168l6.4844-3.4336c0.44922-0.23047 0.94141-0.35156 1.4336-0.35156 0.30469 0 0.625 0.042969 0.91797 0.14062 0.78906 0.24219 1.4336 0.76562 1.8164 1.5l5.7305 10.852c0.79688 1.5 0.21875 3.3711-1.2812 4.1719zm37.758-19.961c0 0.011719-0.011719 0.011719-0.011719 0.011719l-6.4961 3.4336c-1.5078 0.78906-3.3594 0.20703-4.1562-1.2812l-5.7305-10.871c-0.38281-0.72266-0.46094-1.5547-0.21875-2.3398 0.24219-0.77734 0.77734-1.4219 1.5-1.8164l6.4961-3.4219c0.44922-0.24219 0.94141-0.35938 1.4453-0.35938 0.29688 0 0.61328 0.054687 0.90625 0.14062 0.77734 0.24219 1.4219 0.77734 1.8047 1.5078l5.7422 10.852c0.37891 0.71875 0.45703 1.5508 0.21484 2.3398-0.23828 0.78516-0.77344 1.4297-1.4961 1.8047zm-13.059 54.16c-5.4141-7.4922-14.176-11.965-23.43-11.965h-91.316c0.03125-0.53516 0.042969-1.082 0.054688-1.6523 0.10938-10.965-12.086-15.551-30.637-22.422l5.5234-26.828h41.336c4.9219 0 9.2852-2.5703 11.672-6.8594 2.3828-4.2969 2.2656-9.3516-0.31641-13.531-5.2734-8.5078-14.406-13.586-24.414-13.586h-21.285l0.875-4.2539h17.039c0.99609 0 1.9258-0.53516 2.4297-1.3984 0.49219-0.86328 0.49219-1.9258 0-2.7891l-5.4023-9.418c-0.41406-0.73438-1.1484-1.2344-1.9805-1.3789l-18.234-2.9297-30.363-25.102c-0.64453-0.55859-1.5078-0.72266-2.3633-0.58984l-10.141 2.1328c-1.0078 0.21875-1.8164 0.96094-2.1016 1.9453-0.29688 0.98438-0.023438 2.0547 0.69922 2.7773l34.836 34.836-13.855 67.555c-1.4297 0.625-2.8281 1.3594-4.1367 2.3047-5.8203 4.1875-9.1641 10.707-9.1641 17.883v7.7344c0 6.8672 4.7109 12.441 11.004 14.258v8.3594c0 1.543 1.2578 2.8008 2.8008 2.8008h26.469c1.543 0 2.8008-1.2578 2.8008-2.8008v-7.5352h87.02v7.5352c0 1.543 1.2578 2.8008 2.8008 2.8008h26.457c1.543 0 2.8008-1.2578 2.8008-2.8008v-7.5352h12.512c1.0508 0 2.0117-0.58984 2.4922-1.5312 0.48047-0.92969 0.39453-2.0547-0.23047-2.9102zm-111.53-91.238c8.0625 0 15.398 4.0898 19.645 10.938 1.5078 2.4297 1.5742 5.3594 0.19531 7.8516-1.3906 2.4922-3.9258 3.9805-6.7812 3.9805h-40.184l4.6875-22.773zm-59.445-47.699 29.914 24.73c0.38281 0.31641 0.84375 0.53516 1.3359 0.61328l17.664 2.832 2.3281 4.0703h-23.547l-31.457-31.457zm28.785 37.844h4.5234l-13.145 63.855c-1.5117-0.13281-3.0156-0.046875-4.5039 0.13281zm4.9883 113.38h-20.867v-4.7344h20.867zm6.6289-10.336h-29.016c-5.2266 0-9.4844-4.2539-9.4844-9.4844v-7.7344c0-5.3477 2.4922-10.215 6.8359-13.332 2.8672-2.0664 6.1914-3.1172 9.5469-3.1172 1.7383 0 3.4883 0.28516 5.1953 0.85156 18.418 6.8242 27.266 10.402 27.203 17.195-0.12891 12.535-8.75 15.238-10.281 15.621zm112.45 10.336h-20.859v-4.7344h20.859zm-102.13-10.336c1.9023-2.0781 3.5664-4.8125 4.5703-8.3125h92.258c6.8906 0 13.453 3.0742 17.852 8.3125z"/>
  <use x="70" y="728" xlink:href="#l"/>
  <use x="111.097656" y="728" xlink:href="#h"/>
  <use x="138.714844" y="728" xlink:href="#a"/>
  <use x="176.695312" y="728" xlink:href="#g"/>
  <use x="214.484375" y="728" xlink:href="#f"/>
  <use x="241.253906" y="728" xlink:href="#a"/>
  <use x="279.234375" y="728" xlink:href="#e"/>
  <use x="338.816406" y="728" xlink:href="#d"/>
  <use x="378.902344" y="728" xlink:href="#c"/>
  <use x="434.902344" y="728" xlink:href="#b"/>
  <use x="478.242188" y="728" xlink:href="#k"/>
  <use x="516.441406" y="728" xlink:href="#j"/>
  <use x="564.046875" y="728" xlink:href="#i"/>
 </g>
</svg>
