<?xml version="1.0" standalone="no"?>
<!DOCTYPE svg PUBLIC "-//W3C//DTD SVG 20010904//EN"
 "http://www.w3.org/TR/2001/REC-SVG-20010904/DTD/svg10.dtd">
<svg version="1.0" xmlns="http://www.w3.org/2000/svg"
 width="64.000000pt" height="64.000000pt" viewBox="0 0 64.000000 64.000000"
 preserveAspectRatio="xMidYMid meet">

<g transform="translate(0.000000,64.000000) scale(0.100000,-0.100000)"
fill="#000000" stroke="none">
<path d="M153 596 c-4 -8 -19 -16 -33 -18 l-25 -3 -2 -205 c-2 -136 -7 -213
-15 -228 -9 -18 -9 -27 0 -42 7 -11 12 -31 12 -45 l0 -25 250 0 250 0 0 275 0
275 -49 0 c-34 0 -51 4 -55 15 -3 8 -15 15 -26 15 -11 0 -23 -7 -26 -15 -5
-12 -27 -15 -114 -15 -87 0 -109 3 -114 15 -7 19 -42 20 -53 1z m37 -26 c0
-11 -4 -20 -10 -20 -5 0 -10 9 -10 20 0 11 5 20 10 20 6 0 10 -9 10 -20z m280
0 c0 -11 -4 -20 -10 -20 -5 0 -10 9 -10 20 0 11 5 20 10 20 6 0 10 -9 10 -20z
m-327 -17 c-29 -11 -10 -23 37 -23 47 0 66 12 38 23 -7 3 39 5 102 5 63 0 109
-2 103 -5 -29 -11 -10 -23 37 -23 47 0 66 12 37 23 -6 3 -2 6 11 6 17 1 22 -5
22 -24 l0 -25 -210 0 -210 0 0 25 c0 19 5 25 23 24 12 0 16 -3 10 -6z m427
-18 c0 -14 -4 -25 -10 -25 -5 0 -10 11 -10 25 0 14 5 25 10 25 6 0 10 -11 10
-25z m-42 -242 l-3 -198 -25 0 c-33 0 -42 44 -11 52 60 15 1 23 -179 23 l-200
0 0 160 0 160 210 0 210 0 -2 -197z m42 -23 l0 -220 -230 0 c-147 0 -230 4
-230 10 0 6 75 10 204 10 173 0 207 2 220 16 13 13 16 46 16 210 0 123 4 194
10 194 6 0 10 -80 10 -220z m-115 -150 l0 -30 -178 0 c-149 0 -179 2 -183 15
-4 8 -4 22 0 30 4 13 34 15 183 15 l178 0 0 -30z"/>
<path d="M190 440 c0 -5 -9 -10 -20 -10 -18 0 -20 -7 -20 -80 0 -73 2 -80 20
-80 11 0 20 -4 20 -10 0 -5 14 -10 30 -10 27 0 30 3 30 30 l0 30 70 0 70 0 0
-30 c0 -27 3 -30 30 -30 17 0 30 5 30 10 0 6 9 10 20 10 18 0 20 7 20 80 0 73
-2 80 -20 80 -11 0 -20 5 -20 10 0 6 -13 10 -30 10 -27 0 -30 -3 -30 -30 l0
-30 -70 0 -70 0 0 30 c0 27 -3 30 -30 30 -16 0 -30 -4 -30 -10z m40 -90 c0
-47 -4 -80 -10 -80 -6 0 -10 33 -10 80 0 47 4 80 10 80 6 0 10 -33 10 -80z
m200 0 c0 -47 -4 -80 -10 -80 -6 0 -10 33 -10 80 0 47 4 80 10 80 6 0 10 -33
10 -80z m-240 0 c0 -33 -4 -60 -10 -60 -6 0 -10 27 -10 60 0 33 4 60 10 60 6
0 10 -27 10 -60z m280 0 c0 -33 -4 -60 -10 -60 -6 0 -10 27 -10 60 0 33 4 60
10 60 6 0 10 -27 10 -60z m-200 0 c0 -11 -4 -20 -10 -20 -5 0 -10 9 -10 20 0
11 5 20 10 20 6 0 10 -9 10 -20z m80 0 c0 -16 -7 -20 -30 -20 -23 0 -30 4 -30
20 0 16 7 20 30 20 23 0 30 -4 30 -20z m40 0 c0 -11 -4 -20 -10 -20 -5 0 -10
9 -10 20 0 11 5 20 10 20 6 0 10 -9 10 -20z"/>
<path d="M270 220 c0 -5 5 -10 10 -10 6 0 10 5 10 10 0 6 -4 10 -10 10 -5 0
-10 -4 -10 -10z"/>
<path d="M310 220 c0 -5 5 -10 10 -10 6 0 10 5 10 10 0 6 -4 10 -10 10 -5 0
-10 -4 -10 -10z"/>
<path d="M350 220 c0 -5 5 -10 10 -10 6 0 10 5 10 10 0 6 -4 10 -10 10 -5 0
-10 -4 -10 -10z"/>
</g>
</svg>
