<?xml version="1.0" standalone="no"?>
<!DOCTYPE svg PUBLIC "-//W3C//DTD SVG 20010904//EN"
 "http://www.w3.org/TR/2001/REC-SVG-20010904/DTD/svg10.dtd">
<svg version="1.0" xmlns="http://www.w3.org/2000/svg"
 width="100.000000pt" height="100.000000pt" viewBox="0 0 100.000000 100.000000"
 preserveAspectRatio="xMidYMid meet">

<g transform="translate(0.000000,100.000000) scale(0.100000,-0.100000)"
fill="#000000" stroke="none">
<path d="M487 994 c-4 -4 -7 -22 -7 -41 l0 -33 -240 0 -240 0 0 -340 0 -340
240 0 c221 0 240 -1 240 -17 0 -10 -41 -59 -92 -110 -73 -73 -90 -95 -80 -105
10 -10 29 4 91 66 l80 79 3 -34 c4 -46 32 -46 36 0 l3 34 80 -79 c62 -62 81
-76 91 -66 10 10 -7 32 -80 105 -51 51 -92 100 -92 110 0 16 19 17 240 17
l240 0 0 340 0 340 -239 0 -240 0 -3 37 c-3 35 -17 51 -31 37z m473 -414 l0
-300 -460 0 -460 0 0 300 0 300 460 0 460 0 0 -300z"/>
<path d="M792 708 c-6 -6 -12 -17 -12 -23 0 -17 -197 -165 -220 -165 -26 0
-174 107 -186 135 -12 28 -55 27 -70 -2 -14 -30 -94 -90 -124 -95 -31 -4 -48
-32 -34 -55 16 -26 56 -23 70 4 15 31 98 93 124 93 26 0 174 -107 186 -135 12
-28 55 -27 70 2 15 31 194 170 223 175 13 1 29 11 35 21 22 35 -32 75 -62 45z"/>
</g>
</svg>
