<?xml version="1.0" encoding="UTF-8"?>
<svg width="700pt" height="700pt" version="1.1" viewBox="0 0 700 700" xmlns="http://www.w3.org/2000/svg">
 <g>
  <path d="m411.25 96.25c0-16.246-6.4531-31.824-17.941-43.309-11.484-11.488-27.062-17.941-43.309-17.941s-31.824 6.4531-43.309 17.941c-11.488 11.484-17.941 27.062-17.941 43.309s6.4531 31.824 17.941 43.309c11.484 11.488 27.062 17.941 43.309 17.941 16.238-0.019531 31.805-6.4805 43.289-17.961 11.48-11.484 17.941-27.051 17.961-43.289zm-61.25 43.75c-11.602 0-22.73-4.6094-30.938-12.812-8.2031-8.207-12.812-19.336-12.812-30.938s4.6094-22.73 12.812-30.938c8.207-8.2031 19.336-12.812 30.938-12.812s22.73 4.6094 30.938 12.812c8.2031 8.207 12.812 19.336 12.812 30.938-0.011719 11.598-4.625 22.719-12.828 30.922s-19.324 12.816-30.922 12.828z"/>
  <path d="m586.25 297.5h-8.75v-44.434c-0.089844-6.9922-3.0039-13.652-8.0742-18.465-5.0703-4.8125-11.871-7.375-18.859-7.1016-2.75 0.035156-5.4727 0.51562-8.0664 1.4297v-10.863c-0.089844-6.9922-3.0039-13.652-8.0742-18.465-5.0703-4.8125-11.871-7.375-18.859-7.1016-6.7773 0.007812-13.277 2.7031-18.07 7.4961-4.793 4.793-7.4883 11.293-7.4961 18.07v79.434h-30.48l-18.02-104.03c-1.8672-10.195-7.2812-19.402-15.285-25.984-8.0078-6.5859-18.086-10.125-28.449-9.9883h-95.453c-10.402-0.13281-20.512 3.4219-28.539 10.035-8.0273 6.6172-13.449 15.859-15.309 26.094l-16.91 103.87h-31.555v-79.434c-0.089844-6.9922-3.0039-13.652-8.0742-18.465-5.0703-4.8125-11.871-7.375-18.859-7.1016-6.7773 0.007812-13.277 2.7031-18.07 7.4961-4.793 4.793-7.4883 11.293-7.4961 18.07v11.066c-3.0312-1.0664-6.2188-1.6172-9.4336-1.6328-6.7773 0.007812-13.277 2.7031-18.07 7.4961-4.793 4.793-7.4883 11.293-7.4961 18.07v44.434h-8.75c-4.832 0-8.75 3.918-8.75 8.75s3.918 8.75 8.75 8.75h8.75v44.434c0.007812 6.7773 2.7031 13.277 7.4961 18.07 4.793 4.793 11.293 7.4883 18.07 7.4961h1.3672c2.75-0.035156 5.4727-0.51562 8.0664-1.4297v10.863c0.007812 6.7773 2.7031 13.277 7.4961 18.07 4.793 4.793 11.293 7.4883 18.07 7.4961h1.3672c6.7773-0.007812 13.277-2.7031 18.07-7.4961 4.793-4.793 7.4883-11.293 7.4961-18.07v-79.434h29.176c0.23047 6.4258 2.7109 12.566 7.0039 17.355 4.293 4.7852 10.129 7.918 16.492 8.8438 9.3984 1.332 18.914-1.4805 26.078-7.7109v162.73c-0.15234 7.1211 2.5273 14.012 7.4453 19.164 4.9219 5.1523 11.684 8.1406 18.805 8.3125 6.9688-0.10547 13.617-2.9414 18.516-7.8984s7.6562-11.637 7.6836-18.605l8.7539-77.512 8.7969 78.777c-0.078125 7.0117 2.6562 13.762 7.5859 18.746 4.9297 4.9844 11.652 7.793 18.664 7.793s13.734-2.8086 18.664-7.793c4.9297-4.9844 7.6641-11.734 7.5859-18.746v-165.77c6.3008 5.7734 14.539 8.9766 23.09 8.9727 1.6523 0.003906 3.3008-0.10938 4.9375-0.33984 7.6016-1.0547 14.461-5.125 19.02-11.297 3.1914-4.3672 4.9531-9.6172 5.043-15.023h26.66v79.434c0.007812 6.7773 2.7031 13.277 7.4961 18.07 4.793 4.793 11.293 7.4883 18.07 7.4961h1.3672c6.7773-0.007812 13.277-2.7031 18.07-7.4961 4.793-4.793 7.4883-11.293 7.4961-18.07v-10.863c2.5938 0.91406 5.3164 1.3945 8.0664 1.4297h1.3672c6.7773-0.007812 13.277-2.7031 18.07-7.4961 4.793-4.793 7.4883-11.293 7.4961-18.07v-44.434h8.75c4.832 0 8.75-3.918 8.75-8.75s-3.918-8.75-8.75-8.75zm-436.82 70h-1.3672c-4.4531-0.003906-8.0625-3.6133-8.0664-8.0664v-106.37c0.097656-2.3516 1.168-4.5586 2.9609-6.0898 1.7891-1.5273 4.1328-2.2461 6.4727-1.9766 4.4531 0.003906 8.0625 3.6133 8.0664 8.0664v106.37c-0.003906 4.4531-3.6133 8.0625-8.0664 8.0664zm43.066 26.934c-0.003906 4.4531-3.6133 8.0625-8.0664 8.0664h-1.3672c-4.4531-0.003906-8.0625-3.6133-8.0664-8.0664v-176.37c0.097656-2.3516 1.168-4.5586 2.9609-6.0898 1.7891-1.5273 4.1328-2.2461 6.4727-1.9766 4.4531 0.003906 8.0625 3.6133 8.0664 8.0664zm83.227-197.92c1.1797-6.1445 4.4961-11.68 9.3594-15.617 4.8672-3.9375 10.969-6.0273 17.227-5.8984h95.457-0.003906c6.2383-0.125 12.32 1.9609 17.168 5.8867 4.8516 3.9219 8.1562 9.4336 9.3398 15.562l17.473 101.05h-30.496v-43.75c0-4.832-3.918-8.75-8.75-8.75s-8.75 3.918-8.75 8.75v43.75h-87.5v-43.75c0-4.832-3.918-8.75-8.75-8.75s-8.75 3.918-8.75 8.75v43.75h-29.461zm-10.551 127.35v0.003906c-4.543-0.56641-8.0312-4.3008-8.2891-8.8711h24.215-0.003906c-1.3555 2.9883-3.6367 5.4609-6.5 7.0547-2.8672 1.5977-6.168 2.2344-9.4219 1.8164zm119.82 183.63c-2.5117-0.11719-4.8672-1.25-6.5273-3.1367-1.6602-1.8906-2.4805-4.3711-2.2734-6.8789l-17.5-157.21c-0.03125-0.26563-0.18359-0.47266-0.23438-0.73047v0.003906c-0.24609-1.0898-0.67188-2.1289-1.2656-3.0742-0.625-0.87891-1.3867-1.6562-2.2539-2.2969-0.53906-0.36719-1.1172-0.66797-1.7266-0.90234-0.44141-0.18359-0.89844-0.33203-1.3633-0.44141-0.28516-0.10938-0.57812-0.20312-0.875-0.28125-0.36328 0.003907-0.72656 0.03125-1.0859 0.085938-0.28516-0.042969-0.57031-0.070313-0.85938-0.085938-0.23047 0.027344-0.41406 0.16406-0.64062 0.20703v-0.003906c-0.68359 0.12891-1.3516 0.34375-1.9844 0.63672-1.0117 0.42578-1.9141 1.0703-2.6445 1.8867-1.1094 1.1875-1.875 2.6484-2.2227 4.2344-0.054688 0.26562-0.21094 0.48438-0.24219 0.76172l-17.551 155.95c0.33203 2.5195-0.4375 5.0586-2.1133 6.9688-1.6758 1.9141-4.0938 3.0078-6.6367 3.0078s-4.9609-1.0938-6.6367-3.0078c-1.6758-1.9102-2.4453-4.4492-2.1133-6.9688v-181.22h87.5v183.46c0.074219 4.9102-3.8398 8.9531-8.75 9.0391zm59.164-187.8c-1.7461 2.3633-4.3828 3.9102-7.2969 4.2891-3.4297 0.46094-6.9219-0.16016-9.9844-1.7695-3.0664-1.6094-5.5547-4.1328-7.125-7.2188h26.059c-0.12109 1.6875-0.69141 3.3086-1.6523 4.6992zm80.836 74.734c-0.007812 4.4531-3.6133 8.0586-8.0664 8.0664h-1.3672c-4.4531-0.007812-8.0586-3.6133-8.0664-8.0664v-176.37c0.097656-2.3516 1.1719-4.5586 2.9609-6.0859 1.7891-1.5312 4.1328-2.2461 6.4727-1.9805 4.4531 0.007812 8.0586 3.6133 8.0664 8.0664zm35-35c-0.007812 4.4531-3.6133 8.0586-8.0664 8.0664h-1.3672c-4.4531-0.007812-8.0586-3.6133-8.0664-8.0664v-106.37c0.097656-2.3516 1.1719-4.5586 2.9609-6.0859 1.7891-1.5312 4.1328-2.2461 6.4727-1.9805 4.4531 0.007812 8.0586 3.6133 8.0664 8.0664z"/>
 </g>
</svg>
